<svg fill="#000000" 
    xmlns="http://www.w3.org/2000/svg" viewBox="0 0 50 50" width="50px" height="50px">
    <path d="M 39.720703 3 L 39.46875 3.0097656 C 37.47175 3.0817656 35.301125 3.9829219 33.453125 5.4199219 C 32.327125 6.4359219 30.264437 8.382 30.023438 12.25 C 30.008438 12.494 30 12.746859 30 13.005859 C 30 13.334859 30.029938 13.664047 30.085938 13.998047 C 30.284938 15.185047 30.810422 16.416922 31.482422 17.794922 C 31.857422 18.563922 32.267734 19.404562 32.677734 20.351562 C 34.976734 25.660563 35.753422 29.262703 35.982422 31.470703 C 40.994422 26.575703 45.601141 21.230375 45.994141 14.734375 C 46.122141 9.545375 43.748266 4.9843281 39.947266 3.1113281 L 39.720703 3 z M 11.5 6 C 9.262 6 6.9017344 6.4600313 4.6777344 7.3320312 L 4.0957031 7.5605469 L 4.046875 8.1855469 C 4.016875 8.5695469 4 8.967 4 9.375 C 4.003 14.885 6.9302344 21.563438 15.115234 23.773438 C 16.122234 24.068438 17.047016 24.330172 17.916016 24.576172 C 20.211016 25.227172 22.024609 25.742984 23.974609 26.458984 C 23.996609 26.466984 24.016109 26.476375 24.037109 26.484375 C 24.189109 26.535375 24.343047 26.589531 24.498047 26.644531 C 27.508047 27.707531 31.161328 29.487828 33.986328 31.548828 C 33.762328 29.565828 33.02975 26.193531 30.84375 21.144531 C 30.81575 21.079531 30.787766 21.024938 30.759766 20.960938 L 30.753906 20.962891 C 26.641906 11.667891 20.374609 8.1594688 18.349609 7.2304688 C 16.129609 6.4344687 13.809 6 11.5 6 z M 24.435547 28.75 C 23.977547 29.415 23.476828 30.092156 22.923828 30.785156 C 21.330828 32.801156 18.795344 36.740047 18.152344 41.998047 C 18.057344 42.775047 18.003 43.580109 18 44.412109 C 17.997 45.280109 18.050156 46.160344 18.160156 47.027344 L 18.285156 48 L 19.263672 47.890625 C 24.652672 47.293625 28.327484 45.106687 30.771484 42.429688 C 33.222484 39.288688 33.839516 35.919641 33.978516 34.056641 C 31.438516 31.901641 27.612547 29.935 24.435547 28.75 z"/>
</svg>